Coordinates
version=1
nRows=24
nColumns=38
inDegrees=no

Units are S.I. units (second, meters, Newtons, ...)
If the header above contains a line with 'inDegrees', this indicates whether rotational values are in degrees (yes) or radians (no).

endheader
time	pelvis_tilt	pelvis_list	pelvis_rotation	pelvis_tx	pelvis_ty	pelvis_tz	hip_flexion_r	hip_adduction_r	hip_rotation_r	knee_angle_r	ankle_angle_r	subtalar_angle_r	mtp_angle_r	hip_flexion_l	hip_adduction_l	hip_rotation_l	knee_angle_l	ankle_angle_l	subtalar_angle_l	mtp_angle_l	lumbar_extension	lumbar_bending	lumbar_rotation	arm_flex_r	arm_add_r	arm_rot_r	elbow_flex_r	pro_sup_r	wrist_flex_r	wrist_dev_r	arm_flex_l	arm_add_l	arm_rot_l	elbow_flex_l	pro_sup_l	wrist_flex_l	wrist_dev_l
5	-0.402427	1.49879	2.0148	0.643691	0.505464	0.793105	0.790235	-0.211455	-0.052911	1.4395	0.523599	0	0	0.794073	0.0317693	-0.0620006	1.45382	0.523599	0	0	-0.327351	0.113787	0.0155147	0.199383	-0.292699	0.141176	0.297079	1.12209	0	0	-0.0575109	-0.311031	0.490936	0.892687	0.955496	0	0
5.01	-0.39984	1.49754	2.01292	0.643407	0.504912	0.791278	0.79603	-0.213132	-0.051886	1.4461	0.523599	0	0	0.800065	0.0319787	-0.0628702	1.4604	0.523599	0	0	-0.330134	0.114769	0.0152862	0.201235	-0.297986	0.172596	0.302431	1.0773	0	0	-0.0562276	-0.310692	0.487209	0.894442	0.956171	0	0
5.02	-0.401696	1.49677	2.01491	0.643242	0.504386	0.789678	0.801223	-0.214324	-0.0503632	1.45209	0.523599	0	0	0.804851	0.0317542	-0.0640877	1.46623	0.523599	0	0	-0.333798	0.11524	0.0171955	0.205505	-0.296662	0.149023	0.2988	1.11087	0	0	-0.0534044	-0.310917	0.486695	0.895809	0.954954	0	0
5.03	-0.398993	1.49629	2.01262	0.643039	0.503799	0.78817	0.806172	-0.215503	-0.0495032	1.45767	0.523599	0	0	0.809494	0.0315886	-0.0644842	1.47187	0.523599	0	0	-0.33755	0.116444	0.0181472	0.208572	-0.298258	0.151334	0.299987	1.10528	0	0	-0.0519282	-0.310741	0.48358	0.898464	0.954869	0	0
5.04	-0.395356	1.49593	2.00951	0.642802	0.503181	0.786777	0.810457	-0.216825	-0.0492586	1.46265	0.523599	0	0	0.813775	0.0316613	-0.064604	1.47686	0.523599	0	0	-0.341646	0.117912	0.0190505	0.21176	-0.299629	0.151674	0.301028	1.10069	0	0	-0.0507714	-0.310365	0.479777	0.901627	0.954223	0	0
5.05	-0.392872	1.49516	2.00734	0.642622	0.502576	0.785477	0.814579	-0.218238	-0.0490772	1.46692	0.523599	0	0	0.818044	0.0317973	-0.0651491	1.48113	0.523599	0	0	-0.345621	0.119084	0.0204042	0.214754	-0.301054	0.152115	0.301869	1.09537	0	0	-0.0497629	-0.309967	0.475707	0.904903	0.953575	0	0
5.06	-0.390605	1.49421	2.00544	0.64249	0.501973	0.784301	0.81842	-0.219682	-0.0489924	1.47048	0.523599	0	0	0.822249	0.0321243	-0.0656224	1.48497	0.523599	0	0	-0.349435	0.120061	0.0218088	0.217538	-0.302291	0.152113	0.302864	1.09099	0	0	-0.0487346	-0.309658	0.472426	0.907544	0.95365	0	0
5.07	-0.388185	1.49317	2.00359	0.642402	0.501371	0.783266	0.822078	-0.221165	-0.0490741	1.47367	0.523599	0	0	0.826383	0.0327042	-0.0658036	1.48842	0.523599	0	0	-0.353166	0.120854	0.0228793	0.220631	-0.303316	0.152831	0.303318	1.08655	0	0	-0.0481648	-0.30945	0.46832	0.910427	0.95376	0	0
5.08	-0.385712	1.49224	2.00139	0.642378	0.500762	0.782387	0.825507	-0.222254	-0.0489735	1.47663	0.523599	0	0	0.830164	0.0329886	-0.0660484	1.49142	0.523599	0	0	-0.357054	0.121485	0.0242579	0.223646	-0.304354	0.153722	0.303969	1.08199	0	0	-0.0475019	-0.309253	0.464778	0.913357	0.953745	0	0
5.09	-0.380332	1.49134	1.99619	0.64237	0.500157	0.781633	0.828845	-0.223135	-0.0492618	1.47929	0.523599	0	0	0.833795	0.0329707	-0.0660586	1.49413	0.523599	0	0	-0.360954	0.122302	0.0259322	0.226423	-0.305389	0.154161	0.304903	1.07724	0	0	-0.0466185	-0.308854	0.461927	0.915195	0.954157	0	0
5.1	-0.373067	1.49041	1.98878	0.642374	0.499544	0.780959	0.832469	-0.22378	-0.0496631	1.48162	0.523599	0	0	0.837281	0.0326129	-0.0662327	1.49643	0.523599	0	0	-0.364842	0.123217	0.0279703	0.229129	-0.306472	0.153932	0.306032	1.073	0	0	-0.0458063	-0.308315	0.458994	0.917216	0.954555	0	0
5.11	-0.3639	1.48936	1.97914	0.64237	0.498894	0.780319	0.836203	-0.224199	-0.0499315	1.4839	0.523599	0	0	0.840866	0.0320045	-0.0666231	1.49843	0.523599	0	0	-0.36833	0.124505	0.0292914	0.230031	-0.313828	0.204408	0.314389	0.99538	0	0	-0.046309	-0.306746	0.452722	0.918481	0.967496	0	0
5.12	-0.352846	1.48759	1.96807	0.642443	0.498326	0.779672	0.840323	-0.225048	-0.0505899	1.48587	0.523599	0	0	0.845091	0.0316438	-0.0667985	1.5002	0.523599	0	0	-0.371217	0.125299	0.0330741	0.234475	-0.308723	0.152181	0.305995	1.06698	0	0	-0.0439239	-0.307558	0.456542	0.920736	0.953325	0	0
5.13	-0.338567	1.48637	1.9542	0.642481	0.497792	0.77907	0.843702	-0.226003	-0.0521498	1.48739	0.523599	0	0	0.848863	0.0311004	-0.0662973	1.5023	0.523599	0	0	-0.374047	0.126963	0.0353025	0.236951	-0.309674	0.15023	0.305231	1.0671	0	0	-0.0430879	-0.307415	0.456209	0.921571	0.953848	0	0
5.14	-0.325608	1.48519	1.94159	0.642542	0.497315	0.778493	0.847178	-0.226987	-0.0537097	1.48875	0.523599	0	0	0.852334	0.0304873	-0.0658979	1.50419	0.523599	0	0	-0.376784	0.128463	0.0376688	0.238996	-0.310528	0.147568	0.30467	1.0678	0	0	-0.042448	-0.307322	0.456022	0.922767	0.954511	0	0
5.15	-0.312815	1.48408	1.92928	0.642587	0.496859	0.777948	0.850323	-0.227933	-0.0552933	1.49019	0.523599	0	0	0.855641	0.0299677	-0.0654083	1.50585	0.523599	0	0	-0.37942	0.129956	0.0397555	0.240644	-0.311222	0.143875	0.304858	1.06946	0	0	-0.0421911	-0.30724	0.45557	0.924811	0.955672	0	0
5.16	-0.302038	1.48304	1.91907	0.642661	0.496448	0.777454	0.85301	-0.228929	-0.0567927	1.49161	0.523599	0	0	0.858677	0.0294675	-0.0649016	1.50745	0.523599	0	0	-0.382026	0.131252	0.0416751	0.241873	-0.311854	0.140272	0.305801	1.07157	0	0	-0.0421702	-0.307341	0.455351	0.926612	0.95742	0	0
5.17	-0.293382	1.48223	1.911	0.642766	0.496076	0.777003	0.85518	-0.229933	-0.0581705	1.493	0.523599	0	0	0.861351	0.0288942	-0.0644405	1.50912	0.523599	0	0	-0.384614	0.132338	0.0432312	0.243135	-0.312058	0.136381	0.306729	1.07414	0	0	-0.0425114	-0.307637	0.455287	0.927597	0.959441	0	0
5.18	-0.286756	1.48152	1.90462	0.642924	0.495727	0.776551	0.8573	-0.230527	-0.0591033	1.49448	0.523599	0	0	0.863842	0.028062	-0.0643724	1.51078	0.523599	0	0	-0.387076	0.133028	0.0446154	0.244349	-0.311669	0.131677	0.307784	1.07659	0	0	-0.0433075	-0.308069	0.45533	0.928541	0.961198	0	0
5.19	-0.28014	1.48077	1.89787	0.643122	0.49542	0.776085	0.859427	-0.230766	-0.0598348	1.49591	0.523599	0	0	0.866251	0.0267965	-0.0645511	1.51248	0.523599	0	0	-0.389357	0.133595	0.0456154	0.245973	-0.310988	0.128212	0.308441	1.07868	0	0	-0.0448779	-0.308385	0.454308	0.929793	0.961844	0	0
5.2	-0.2732	1.48035	1.89079	0.643307	0.495133	0.77564	0.861076	-0.230998	-0.0607652	1.49736	0.523599	0	0	0.868221	0.0254579	-0.0646694	1.51411	0.523599	0	0	-0.391807	0.134281	0.0463426	0.247764	-0.310402	0.126167	0.309327	1.07979	0	0	-0.0467153	-0.308548	0.452877	0.931179	0.961911	0	0
5.21	-0.263363	1.48	1.88108	0.643503	0.494872	0.77519	0.862754	-0.231179	-0.0622173	1.49881	0.523599	0	0	0.870211	0.0240431	-0.0644902	1.51574	0.523599	0	0	-0.394084	0.135184	0.0467395	0.249478	-0.309967	0.124621	0.311348	1.08026	0	0	-0.048841	-0.308599	0.451126	0.932441	0.962132	0	0
5.22	-0.250003	1.47944	1.868	0.643733	0.494653	0.774741	0.86457	-0.231157	-0.0640322	1.50026	0.523599	0	0	0.872514	0.0224901	-0.0640323	1.51734	0.523599	0	0	-0.395885	0.136193	0.0467428	0.250943	-0.309768	0.123482	0.314937	1.08023	0	0	-0.0512725	-0.30863	0.449277	0.933079	0.962308	0	0
5.23	-0.236885	1.47876	1.85568	0.643974	0.494518	0.774291	0.866416	-0.231426	-0.0657414	1.50173	0.523599	0	0	0.874814	0.0213156	-0.0631934	1.51894	0.523599	0	0	-0.397109	0.136947	0.0460402	0.251866	-0.309782	0.123638	0.31921	1.07954	0	0	-0.0535125	-0.309085	0.44849	0.93337	0.962153	0	0
